<?xml version="1.0" encoding="utf-8"?>
<!-- Generator: Adobe Illustrator 17.0.0, SVG Export Plug-In . SVG Version: 6.00 Build 0)  -->
<!DOCTYPE svg PUBLIC "-//W3C//DTD SVG 1.1//EN" "http://www.w3.org/Graphics/SVG/1.1/DTD/svg11.dtd">
<svg version="1.1" id="Capa_1" xmlns="http://www.w3.org/2000/svg" xmlns:xlink="http://www.w3.org/1999/xlink" x="0px" y="0px"
	 width="64px" height="64px" viewBox="0 0 64 64" enable-background="new 0 0 64 64" xml:space="preserve">
<path d="M20.782,31.089L12.9,38.522c-0.121,0.115-0.191,0.27-0.196,0.437c-0.005,0.167,0.056,0.325,0.17,0.446l8.82,9.354
	c0.115,0.122,0.271,0.191,0.432,0.196l0.041,0.001c0.153,0,0.291-0.058,0.411-0.171l8.484-8l8.484,8
	c0.115,0.11,0.268,0.171,0.447,0.171c0.166-0.005,0.321-0.075,0.437-0.196l8.821-9.355c0.234-0.251,0.223-0.647-0.027-0.883
	l-7.882-7.433l7.882-7.434c0.119-0.113,0.19-0.272,0.195-0.436c0.005-0.167-0.056-0.327-0.171-0.448l-8.822-9.353
	c-0.225-0.242-0.643-0.252-0.884-0.026l-8.481,7.999l-8.482-7.999c-0.24-0.228-0.655-0.215-0.884,0.025l-8.822,9.353
	c-0.115,0.121-0.176,0.28-0.171,0.448c0.005,0.165,0.077,0.324,0.197,0.436L20.782,31.089z M22.167,48.832l-0.001-0.006
	c0,0,0,0,0.001,0V48.832z M22.177,14.731l8.456,7.975c0.232,0.22,0.625,0.22,0.857,0l8.456-7.975l7.965,8.444l-7.909,7.459
	c-0.124,0.118-0.195,0.284-0.195,0.455c0,0.171,0.071,0.337,0.195,0.455l7.909,7.459l-7.961,8.444l-8.46-7.976
	c-0.232-0.22-0.626-0.219-0.857,0l-8.458,7.976l-7.963-8.444l7.908-7.458c0.126-0.117,0.198-0.283,0.198-0.456
	c0-0.172-0.072-0.338-0.197-0.455l-7.909-7.459L22.177,14.731z"/>
</svg>
